<?xml version="1.0" encoding="utf-8"?>
<!-- Generator: Adobe Illustrator 25.2.1, SVG Export Plug-In . SVG Version: 6.00 Build 0)  -->
<svg version="1.1" id="Layer_1" xmlns="http://www.w3.org/2000/svg" xmlns:xlink="http://www.w3.org/1999/xlink" x="0px" y="0px"
	 viewBox="0 0 5171.8 735.1" style="enable-background:new 0 0 5171.8 735.1;" xml:space="preserve">
<style type="text/css">
	.st0{fill:url(#SVGID_1_);}
	.st1{fill:url(#SVGID_2_);}
	.st2{fill:none;stroke:#FFFFFF;stroke-width:5;stroke-miterlimit:10;}
	.st3{fill:none;}
	.st4{fill:#FFFFFF;}
	.st5{fill:none;stroke:#00AEEF;stroke-width:20;stroke-miterlimit:10;}
	.st6{fill:#231F20;}
	.st7{fill:none;stroke:#00A651;stroke-miterlimit:10;}
	.st8{fill:#FFFFFF;stroke:#FFFFFF;stroke-width:15;stroke-miterlimit:10;}
	.st9{fill:#FFF200;}
	.st10{fill:#050505;}
	.st11{fill:#00AEEF;}
	.st12{fill:#F7941D;}
	.st13{fill:none;stroke:#FFFFFF;stroke-width:3;stroke-miterlimit:10;}
	.st14{fill:none;stroke:#F7941D;stroke-width:5;stroke-miterlimit:10;}
	.st15{fill:none;stroke:#00AEEF;stroke-width:5;stroke-miterlimit:10;}
	.st16{fill:url(#SVGID_3_);}
	.st17{fill:none;stroke:url(#SVGID_4_);stroke-width:5;stroke-miterlimit:10;}
	.st18{fill:none;stroke:url(#SVGID_5_);stroke-width:5;stroke-miterlimit:10;}
	.st19{fill:#27AAE1;}
	.st20{fill:none;stroke:url(#SVGID_6_);stroke-width:4;stroke-miterlimit:10;}
	.st21{fill:url(#SVGID_7_);}
	.st22{fill:none;stroke:url(#SVGID_8_);stroke-width:5;stroke-miterlimit:10;}
	.st23{fill:none;stroke:url(#SVGID_9_);stroke-width:5;stroke-miterlimit:10;}
	.st24{fill:none;stroke:url(#SVGID_10_);stroke-width:4;stroke-miterlimit:10;}
	.st25{fill:url(#SVGID_11_);}
	.st26{fill:url(#SVGID_12_);}
	.st27{fill:none;stroke:url(#SVGID_13_);stroke-width:5;stroke-miterlimit:10;}
	.st28{fill:none;stroke:url(#SVGID_14_);stroke-width:4;stroke-miterlimit:10;}
	.st29{fill-rule:evenodd;clip-rule:evenodd;fill:#231F20;}
	.st30{fill:url(#SVGID_15_);stroke:url(#SVGID_16_);stroke-width:3;stroke-miterlimit:10;}
	.st31{fill:url(#SVGID_17_);}
	.st32{fill:url(#SVGID_18_);}
	.st33{fill:url(#SVGID_19_);}
	.st34{fill:url(#SVGID_20_);}
	.st35{fill:url(#SVGID_21_);}
	.st36{fill:url(#SVGID_22_);}
	.st37{fill:none;stroke:url(#SVGID_23_);stroke-width:5;stroke-miterlimit:10;}
	.st38{fill:none;stroke:url(#SVGID_24_);stroke-width:5;stroke-miterlimit:10;}
	.st39{fill:url(#SVGID_25_);}
	.st40{fill:url(#SVGID_26_);}
	.st41{fill:url(#SVGID_27_);}
	.st42{fill:url(#SVGID_28_);}
	.st43{fill:none;stroke:url(#SVGID_29_);stroke-width:5;stroke-miterlimit:10;}
	.st44{fill:none;stroke:url(#SVGID_30_);stroke-width:5;stroke-miterlimit:10;}
	.st45{fill:url(#SVGID_31_);}
	.st46{fill:url(#SVGID_32_);}
	.st47{fill:url(#SVGID_33_);}
	.st48{fill:#414042;}
	.st49{fill:none;stroke:#FFFFFF;stroke-width:14;stroke-miterlimit:10;}
	.st50{fill:none;stroke:#EC008C;stroke-miterlimit:10;}
	.st51{fill:none;stroke:#2E3192;stroke-miterlimit:10;}
	.st52{fill:none;stroke:#D7DF23;stroke-miterlimit:10;}
	.st53{fill:none;stroke:#00A651;stroke-width:3;stroke-miterlimit:10;}
	.st54{fill:none;stroke:#EC008C;stroke-width:3;stroke-miterlimit:10;}
	.st55{fill:none;stroke:#2E3192;stroke-width:3;stroke-miterlimit:10;}
	.st56{fill:none;stroke:#D7DF23;stroke-width:3;stroke-miterlimit:10;}
	.st57{fill:none;stroke:#FFFFFF;stroke-width:0.5;stroke-miterlimit:10;}
	.st58{fill:url(#SVGID_34_);}
	.st59{fill:none;stroke:#FFFFFF;stroke-miterlimit:10;}
	.st60{fill:url(#SVGID_35_);}
	.st61{fill:url(#SVGID_36_);}
	.st62{fill:url(#SVGID_37_);}
	.st63{fill:#00A14B;}
	.st64{fill:#21409A;}
	.st65{fill:#ED1C24;}
	.st66{fill:#006838;}
	.st67{fill:#8DC63F;}
	.st68{fill:#2E31FF;}
	.st69{fill:#BE1E2D;}
	.st70{fill:#EE2A7B;}
	.st71{opacity:0.8;fill:#00A14B;}
	.st72{opacity:0.8;fill:#21409A;}
	.st73{opacity:0.8;fill:#ED1C24;}
	.st74{fill:none;stroke:#FFFFFF;stroke-width:6;stroke-miterlimit:10;}
	.st75{fill:#39B54A;}
	.st76{fill:#92278F;}
	.st77{fill:url(#SVGID_38_);}
	.st78{fill:url(#SVGID_39_);}
	.st79{fill:url(#SVGID_40_);}
	.st80{fill:url(#SVGID_41_);}
	.st81{fill:url(#SVGID_42_);}
	.st82{fill:url(#SVGID_43_);}
	.st83{fill:url(#SVGID_44_);}
	.st84{fill:url(#SVGID_45_);}
	.st85{fill:url(#SVGID_46_);}
	.st86{fill:url(#SVGID_47_);}
	.st87{fill:url(#SVGID_48_);}
	.st88{fill:url(#SVGID_49_);}
	.st89{fill:url(#SVGID_50_);}
	.st90{fill:url(#SVGID_51_);}
	.st91{fill:url(#SVGID_52_);}
	.st92{fill:url(#SVGID_53_);}
	.st93{fill:url(#SVGID_54_);}
	.st94{fill:url(#SVGID_55_);}
	.st95{fill:url(#SVGID_56_);}
	.st96{fill:url(#SVGID_57_);}
	.st97{fill:url(#SVGID_58_);}
	.st98{fill:url(#SVGID_59_);}
	.st99{fill:url(#SVGID_60_);}
	.st100{fill:url(#SVGID_61_);}
	.st101{fill:url(#SVGID_62_);}
	.st102{fill:url(#SVGID_63_);}
	.st103{fill:url(#SVGID_64_);}
	.st104{fill:#EC008C;}
	.st105{fill:url(#SVGID_65_);}
	.st106{fill:url(#SVGID_66_);}
	.st107{fill:url(#SVGID_67_);}
	.st108{fill:url(#SVGID_68_);}
	.st109{fill:url(#SVGID_69_);}
	.st110{fill:url(#SVGID_70_);}
	.st111{fill:url(#SVGID_71_);}
	.st112{fill:url(#SVGID_72_);}
	.st113{fill:url(#SVGID_73_);}
	.st114{fill:url(#SVGID_74_);}
	.st115{fill:url(#SVGID_75_);}
	.st116{fill:url(#SVGID_76_);}
	.st117{fill:url(#SVGID_77_);}
	.st118{fill:url(#SVGID_78_);}
	.st119{fill:url(#SVGID_79_);}
	.st120{fill:url(#SVGID_80_);}
	.st121{fill:url(#SVGID_81_);}
	.st122{fill:url(#SVGID_82_);}
	.st123{fill:url(#SVGID_83_);}
	.st124{fill:url(#SVGID_84_);}
	.st125{fill:url(#SVGID_85_);}
	.st126{fill:url(#SVGID_86_);}
	.st127{fill:url(#SVGID_87_);}
	.st128{fill:url(#SVGID_88_);}
	.st129{fill:url(#SVGID_89_);}
	.st130{fill:url(#SVGID_90_);}
	.st131{fill:url(#SVGID_91_);}
	.st132{fill:url(#SVGID_92_);}
	.st133{fill:url(#SVGID_93_);}
	.st134{opacity:0.5;}
	.st135{fill:url(#SVGID_94_);}
</style>
<g>
	<linearGradient id="SVGID_1_" gradientUnits="userSpaceOnUse" x1="0" y1="362.0329" x2="2025.1914" y2="362.0329">
		<stop  offset="0" style="stop-color:#00AEEF;stop-opacity:0"/>
		<stop  offset="0.8143" style="stop-color:#00AEEF"/>
	</linearGradient>
	<polyline style="fill:none;stroke:url(#SVGID_1_);stroke-width:5;stroke-miterlimit:10;" points="0,649.3 1736.7,649.3 
		2021.7,361.5 1736.7,74.8 0,74.8 	"/>
	<linearGradient id="SVGID_2_" gradientUnits="userSpaceOnUse" x1="3176.9084" y1="362.0329" x2="5171.8057" y2="362.0329">
		<stop  offset="0.1857" style="stop-color:#F7941D"/>
		<stop  offset="1" style="stop-color:#F7941D;stop-opacity:0"/>
	</linearGradient>
	<polyline style="fill:none;stroke:url(#SVGID_2_);stroke-width:5;stroke-miterlimit:10;" points="5171.8,649.3 3470,649.3 
		3180.5,362.3 3470,74.8 5171.8,74.8 	"/>
	<polygon class="st3" points="2619.5,401 2576.6,443.9 2619.5,401 	"/>
	<polygon class="st12" points="3180.5,362.4 3193.4,375.3 3327.6,509.5 3340.5,496.6 3206.3,362.4 3494,74.8 3468.1,74.8 
		3193.4,349.4 	"/>
	<polygon class="st11" points="2021.7,360.6 2008.7,347.7 1874.6,213.5 1861.6,226.4 1995.8,360.6 1861.1,495.3 1848.1,508.3 
		1708.2,648.2 1734.1,648.2 2008.7,373.6 	"/>
	<linearGradient id="SVGID_3_" gradientUnits="userSpaceOnUse" x1="2327.3496" y1="321.7191" x2="2931.7349" y2="321.7191">
		<stop  offset="5.727379e-04" style="stop-color:#414042"/>
		<stop  offset="0.5104" style="stop-color:#17191E"/>
		<stop  offset="1" style="stop-color:#17191E"/>
	</linearGradient>
	<path class="st16" d="M2901.1,337.2c1.6-0.3,5.8-0.8,5.8-0.8l6.3-1.3l8.2-2.6l9.8-4.2c0.5-0.3,0.5-11.4,0.5-11.4
		c-0.5-0.3-10-4.2-10-4.2l-8.2-2.6l-6.6-1.6l-4.2-0.5c-1.6,0-2.1-6.9-2.1-6.9l-0.5-6.6c1.6-0.3,5.8-1.6,5.8-1.6l6.1-2.4l7.7-3.7
		l9-5.8c0.5-0.3-1.3-11.1-1.3-11.1c-0.5-0.3-10.8-2.6-10.8-2.6l-8.4-1.6l-6.3-0.5l-4.5,0.3c-1.6,0-2.9-6.3-2.9-6.3l-1.8-6.6
		c1.6-0.3,5.5-2.4,5.5-2.4l5.5-3.4l7.1-5l7.9-6.9c0.3-0.3-2.9-10.8-2.9-10.8c-0.8,0-11.1-1.1-11.1-1.1h-8.7l-6.3,0.5l-4.5,0.8
		c-1.6,0.3-4-5.8-4-5.8l-2.6-6.1c1.3-0.8,4.8-3.4,4.8-3.4l5.3-4l6.3-6.1l6.6-8.2c0.5-0.5-4.8-10.3-4.8-10.3
		c-0.5,0-11.1,0.8-11.1,0.8l-8.4,1.3l-6.3,1.6l-4.2,1.3c-1.3,0.5-4.8-5-4.8-5l-3.4-5.8c0.8-1.1,4.5-4,4.5-4l4-5l5.3-6.9l5.5-9.2
		c0.3,0-6.3-9.2-6.3-9.2c-0.3,0.3-10.8,2.4-10.8,2.4l-8.2,2.7l-6.1,2.6l-4,2.1c-1.3,0.8-5.5-4.5-5.5-4.5l-4.5-4.8
		c1.1-1.1,3.7-4.8,3.7-4.8l3.7-5.5l4-7.7l4-9.8c0.3-0.5-7.7-8.2-7.7-8.2c-0.5,0-10.3,4-10.3,4l-7.7,4l-5.5,3.4l-3.7,2.6
		c-1.1,1.1-5.8-3.4-5.8-3.4l-5.3-4.2c0.8-1.3,2.9-5.3,2.9-5.3l2.6-5.8l2.6-8.2l2.4-10.3c0.3-0.5-8.7-7.4-8.7-7.4
		c-0.5,0.3-9.5,6.1-9.5,6.1l-6.9,5l-5,4.2l-3.2,3.2c-1.1,1.3-6.6-2.6-6.6-2.6l-5.8-3.2c0.8-1.3,2.1-5.5,2.1-5.5l1.6-6.3l1.6-8.7
		l0.5-10.6c0-0.5-9.8-5.5-9.8-5.5c-0.3,0.3-8.4,7.4-8.4,7.4l-6.1,5.8l-4.2,5.3l-2.6,3.4c-0.8,1.6-6.9-1.3-6.9-1.3l-6.1-2.4
		c0.3-1.6,1.1-6.1,1.1-6.1l0.5-6.3l0.3-8.7l-1.1-10.6c0-0.5-10.6-4-10.6-4c-0.3,0.5-7.1,8.4-7.1,8.4l-5.3,6.9l-3.2,5.8l-2.1,4
		c-0.3,1.3-7.1-0.3-7.1-0.3l-6.3-1.6c0.3-1.6,0.3-5.8,0.3-5.8l-0.5-6.6l-1.3-8.7l-2.4-10c-0.3-0.5-11.1-2.4-11.1-2.4
		c-0.3,0.3-6.1,9.5-6.1,9.5l-3.7,7.7l-2.4,6.1l-1.6,4.5c-0.3,1.1-6.9,0.5-6.9,0.5l-6.6-0.5c0-1.3-0.5-5.8-0.5-5.8l-1.6-6.3l-2.6-8.2
		l-4-10c-0.3-0.3-11.4-0.5-11.4-0.5c-0.3,0.5-4.5,10.6-4.5,10.6l-2.6,8.2l-1.3,6.3l-0.8,4.5c0,1.3-6.6,1.6-6.6,1.6l-6.9,0.8
		c-0.3-1.3-1.3-5.5-1.3-5.5l-2.6-6.3l-4-7.7l-5.3-9c-0.5-0.3-11.4,1.1-11.4,1.1c0,0.8-2.9,10.8-2.9,10.8l-1.1,8.7l-0.5,6.6v4.5
		c0.3,1.3-6.3,2.9-6.3,2.9l-6.6,1.6c-0.5-1.3-2.4-5.3-2.4-5.3l-3.4-5.8l-4.8-6.9l-7.1-8.2c-0.5-0.5-10.8,2.9-10.8,2.9
		c-0.3,0.5-1.1,11.1-1.1,11.1v8.7l0.5,6.6l0.8,4.2c0.5,1.6-5.8,4-5.8,4l-6.1,2.6c-0.8-1.3-3.4-5-3.4-5l-4-5l-6.1-6.1l-8.2-6.9
		c-0.3-0.3-10.3,4.5-10.3,4.5c0,0.5,0.8,11.4,0.8,11.4l1.3,8.4l1.6,6.3l1.6,4.2c0.5,1.3-5.3,4.8-5.3,4.8l-5.5,3.7
		c-1.1-1.3-4-4.5-4-4.5l-5-4.2l-6.9-5.3l-9.2-5.3c-0.5-0.3-9.5,6.1-9.5,6.1c0,0.5,2.6,10.8,2.6,10.8l2.6,8.2l2.4,6.1l2.4,4
		c0.8,1.1-4.5,5.3-4.5,5.3l-5,4.5c-1.3-1.1-4.8-3.7-4.8-3.7l-5.3-3.4l-7.7-4l-10-4c-0.5-0.3-8.4,7.7-8.4,7.7
		c0.3,0.5,4.2,10.3,4.2,10.3l4,7.7l3.4,5.5l2.9,3.4c0.8,1.3-3.7,6.3-3.7,6.3l-4,5c-1.3-0.8-5.3-2.9-5.3-2.9l-6.3-2.6l-8.2-2.6
		l-10-2.6c-0.8,0-7.1,9-7.1,9c0.3,0.5,5.5,9.5,5.5,9.5l5.3,7.1l4.2,4.8l3.2,3.4c1.3,0.5-2.4,6.3-2.4,6.3l-3.4,5.8
		c-1.3-0.5-5.5-2.1-5.5-2.1l-6.3-1.6l-8.4-1.3l-10.6-1.1c-0.5,0-5.8,10-5.8,10c0.5,0.3,7.1,8.4,7.1,8.4l6.3,6.1l4.8,4.2l3.7,2.6
		c1.3,0.8-1.3,6.9-1.3,6.9l-2.4,6.3c-1.3-0.5-5.8-1.3-5.8-1.3l-6.3-0.8h-8.7l-10.8,1.1c-0.5,0-4,10.3-4,10.3
		c0.3,0.5,8.4,7.7,8.4,7.7l7.1,5l5.5,3.2l4,2.1c1.6,0.5-0.3,6.9-0.3,6.9l-1.3,6.6c-1.6,0-6.1,0-6.1,0h-6.6l-8.4,1.3l-10.6,2.9
		c-0.3,0-2.1,10.8-2.1,10.8c0.5,0.5,9.5,5.8,9.5,5.8l7.7,4l6.1,2.6l4.2,1.1c1.6,0.5,0.8,7.1,0.8,7.1l-0.3,6.6
		c-1.6,0.3-6.1,0.8-6.1,0.8l-6.3,1.3l-8.2,2.6l-9.8,4.2c-0.5,0.3-0.5,11.4-0.5,11.4c0.5,0.3,10.3,4.2,10.3,4.2l8.2,2.6l6.1,1.6
		l4.5,0.5c1.6,0,2.1,6.9,2.1,6.9l0.8,6.6c-1.6,0.3-6.1,1.6-6.1,1.6l-5.8,2.4l-7.7,3.7l-9.2,5.8c-0.5,0.3,1.3,11.1,1.3,11.1
		c0.5,0.3,10.8,2.9,10.8,2.9l8.4,1.3l6.6,0.5l4.5-0.3c1.6,0,2.6,6.3,2.6,6.3l1.8,6.3c-1.3,0.5-5.5,2.6-5.5,2.6l-5.3,3.4l-7.4,5
		l-7.9,6.9c-0.3,0.3,3.2,10.8,3.2,10.8c0.3,0,11.1,1.1,11.1,1.1h8.7l6.3-0.5l4.5-0.8c1.3-0.5,3.7,5.8,3.7,5.8l2.6,6.1
		c-1.1,0.8-5,3.4-5,3.4l-4.8,4l-6.3,6.1l-6.9,8.2c-0.3,0.5,4.8,10.3,4.8,10.3c0.5,0,11.1-0.8,11.1-0.8l8.4-1.3l6.3-1.6l4.2-1.3
		c1.6-0.5,4.8,5,4.8,5l3.7,5.8c-1.3,1.1-4.5,4-4.5,4l-4.5,5l-4.8,6.9l-5.8,9c-0.3,0.3,6.3,9.5,6.3,9.5c0.5-0.3,11.1-2.4,11.1-2.4
		l8.2-2.9l5.8-2.4l4-2.1c1.3-0.8,5.5,4.5,5.5,4.5l4.5,4.8c-1.1,1.1-3.7,4.8-3.7,4.8l-3.7,5.5l-4,7.7l-4,9.8c0,0.5,7.7,8.4,7.7,8.4
		c0.3-0.3,10.3-4.2,10.3-4.2l7.7-4l5.8-3.4l3.4-2.6c0.8-1.1,6.1,3.4,6.1,3.4l5,4.2c-0.8,1.1-2.6,5.3-2.6,5.3l-2.9,5.8l-2.6,8.2
		l-2.4,10.3c0,0.5,8.7,7.4,8.7,7.4c0.5-0.3,9.8-6.1,9.8-6.1l6.9-5l5-4.2l2.9-3.2c1.1-1.3,6.6,2.6,6.6,2.6l5.8,3.2
		c-0.5,1.3-1.8,5.5-1.8,5.5l-1.8,6.3l-1.6,8.7l-0.8,10.6c0,0.5,10,5.3,10,5.3c0.5,0,8.7-7.1,8.7-7.1l5.8-5.8l4.2-5.3l2.6-3.4
		c0.5-1.6,6.9,1.3,6.9,1.3l6.1,2.4c-0.3,1.6-1.1,5.8-1.1,5.8l-0.5,6.6v8.7l0.8,10.6c0.3,0.5,10.6,4,10.6,4c0.5-0.5,7.4-8.4,7.4-8.4
		l5-6.9l3.4-5.8l1.8-4c0.5-1.3,7.1,0.3,7.1,0.3l6.3,1.6c0,1.3-0.3,5.8-0.3,5.8l0.5,6.6l1.3,8.7l2.4,10c0.3,0.5,11.1,2.4,11.1,2.4
		c0.3-0.5,6.1-9.5,6.1-9.5l4-7.7l2.4-6.1l1.3-4.2c0.3-1.3,6.9-0.8,6.9-0.8l6.6,0.3c0,1.6,0.8,6.1,0.8,6.1l1.6,6.3l2.4,8.2l4.2,10
		c0.3,0.3,11.1,0.5,11.1,0.5c0.3-0.5,4.5-10.6,4.5-10.6l2.6-8.2l1.6-6.3l0.5-4.5c0.3-1.6,6.9-1.6,6.9-1.6l6.6-0.8
		c0.3,1.3,1.6,5.5,1.6,5.5l2.4,6.3l4,7.7l5.5,9c0.3,0.3,11.1-1.1,11.1-1.1c0.3-0.5,2.9-10.8,2.9-10.8l1.3-8.7l0.3-6.6v-4.5
		c-0.3-1.3,6.6-2.9,6.6-2.9l6.3-1.6c0.5,1.3,2.4,5.3,2.4,5.3l3.4,5.8l5,6.9l6.9,8.2c0.3,0.5,11.1-2.9,11.1-2.9
		c0-0.5,0.8-11.1,0.8-11.1V588l-0.5-6.6l-0.8-4.2c-0.3-1.6,5.8-4.2,5.8-4.2l6.3-2.4c0.8,1.3,3.2,5,3.2,5l4.2,5l5.8,6.1l8.2,6.9
		c0.5,0.3,10.6-4.8,10.6-4.8c0-0.3-0.8-11.1-0.8-11.1l-1.6-8.4l-1.3-6.3l-1.6-4.2c-0.8-1.6,5.3-4.8,5.3-4.8l5.3-3.7
		c1.1,1.3,4.2,4.5,4.2,4.5l5,4.2l6.6,5.3l9.2,5.3c0.5,0.3,9.5-6.1,9.5-6.1c0-0.5-2.6-10.8-2.6-10.8l-2.4-8.2l-2.6-6.1l-2.1-4
		c-1.1-1.1,4.2-5.3,4.2-5.3l5.3-4.5c0.8,0.8,4.5,3.7,4.5,3.7l5.5,3.4l7.7,4l9.8,4c0.5,0.3,8.4-7.7,8.4-7.7c0-0.5-4.2-10.3-4.2-10.3
		l-3.7-7.7l-3.7-5.5l-2.6-3.4c-1.1-1.3,3.4-6.3,3.4-6.3l4.2-5c1.3,0.8,5.3,2.9,5.3,2.9l5.8,2.6l8.2,2.6l10.6,2.6c0.5,0,6.9-9,6.9-9
		c-0.3-0.5-5.8-9.8-5.8-9.8l-4.8-6.9l-4.5-4.8l-3.2-3.4c-1.1-0.8,2.4-6.3,2.4-6.3l3.4-5.8c1.3,0.5,5.8,2.1,5.8,2.1l6.1,1.6l8.4,1.3
		l10.6,1.1c0.5,0,5.8-10,5.8-10c-0.3-0.5-7.1-8.4-7.1-8.4l-6.3-6.1l-5-4.2l-3.7-2.6c-1.1-0.8,1.6-6.6,1.6-6.6l2.4-6.6
		c1.6,0.5,5.8,1.3,5.8,1.3l6.6,0.8h8.4l10.6-1.1c0.5,0,4.2-10.3,4.2-10.3c-0.3-0.5-8.4-7.7-8.4-7.7l-7.1-4.8l-5.3-3.4l-4.2-2.1
		c-1.3-0.5,0.5-6.9,0.5-6.9l1.1-6.9c1.6,0.3,6.3,0.3,6.3,0.3l6.3-0.3l8.4-1.1l10.3-2.9c0.5,0,2.4-10.8,2.4-10.8
		c-0.3-0.5-9.5-5.8-9.5-5.8l-7.7-4l-6.1-2.6l-4.2-1.1c-1.6-0.5-0.8-7.1-0.8-7.1L2901.1,337.2z M2629.5,577.6
		c-141.8,0-256.7-114.9-256.7-256.7s114.9-256.7,256.7-256.7c141.8,0,256.7,114.9,256.7,256.7S2771.3,577.6,2629.5,577.6z"/>
	<g>
		
			<image style="overflow:visible;opacity:0.75;" width="2669" height="2669" xlink:href="764942831DDB745.png"  transform="matrix(0.24 0 0 0.24 2305.6785 0)">
		</image>
		<g>
			<linearGradient id="SVGID_4_" gradientUnits="userSpaceOnUse" x1="2463.125" y1="157.589" x2="2788.6665" y2="483.1304">
				<stop  offset="5.727379e-04" style="stop-color:#000000"/>
				<stop  offset="1" style="stop-color:#16191E"/>
			</linearGradient>
			<circle style="fill:url(#SVGID_4_);" cx="2625.9" cy="320.4" r="230.2"/>
		</g>
	</g>
	<g>
		<path class="st4" d="M2484.3,153.4c0.7-0.6,1.3-1.2,2-1.7C2485.6,152.3,2485,152.9,2484.3,153.4z"/>
		<path class="st4" d="M2726.5,225.1c-0.3-4.9-6.2-6.8-10.3-9c0.2-4.5,1.4-1,1.1-5.3c-1.4-0.1-2.3-0.3-3.6,0.3
			c-3.2,1.4-1.4,1.8-1.4,2.3c0.1,2.4,3.2-0.5-0.1,2.5c-0.9,0.8-2.4,0.8-3.5,0.9c-2.2-3.1-2.1-4.6-6.3-4.7c-1.7,1.8-3.7,4.5-4.6,7.3
			c-1.4,4.2-0.4,1.3-0.3,5.8c-0.1,0.2,0,0.4,0,0.6c-0.1,2.7-0.7-0.5-0.3,2c3.3-0.7,0.8-0.6,3.3-1.4c2.3-0.8,9.5-3,11.5-2.4
			C2716.9,225.1,2721,229,2726.5,225.1z"/>
		<path class="st4" d="M2744.1,234.8c3.5,2.5,6,4,10.6,2.8c0.6-5.6-1.1-5.3-2.8-9.1c0.3-0.5,1.1-1,1.2-1.1c1.3-1.7,0.6,0.7,1.3-2.2
			c-3.3-1.1-8.7-4.5-9.1-9c1.6-1.3,1.1-0.5,2.3-1.3c2.6-1.7,0.6,0.9,2.2-2c-1.3-2.6-2.8-3.1-6.1-1.8c-1.4,0.6-5.2,3.2-5.9,3.9
			c0.5,6.9,4.6,9.6,7.5,12.8C2744.8,231,2744,230.2,2744.1,234.8z"/>
		<path class="st4" d="M2847.5,282c-0.6-1-1.3-2.4-2-4.3c-4.3,1.4-4.5,1.5-9.6,2.4l-0.2,0.3c-2,2.9,0.1,1.7-3.5,4.7
			c-4.2,3.6-7,8.4-11.7,11.3c-0.6,5.1,0.4,6.2-0.9,12.2c-0.5,2.2-3,8.2-5.9,7.7c-0.9-0.2-4.8-9.8-5.7-12.5
			c-1.6-4.5-3.3-7.9-4.5-13.1c-0.6-2.8-1.1-8.1-1.7-10c-3,0.4-2.9,2.4-5.8,0.3c-2.1-1.5-1.1-2.4-2.3-4.6c-2.4-2.3-4.9-4.5-7.4-6.8
			c-1.9-0.6-9.3,0.5-12.4,0.1c-5.6-0.5-6.1-0.2-9.4-4.7c-5.9,0.3-5.4,2.5-11.1-2.4c-3.8-3.2-3-8.3-8.5-5.4c-0.2,4.7,2.1,5.7,4.1,7.8
			c1.5,1.7,3.3,2.8,4.1,5c0.1,0.1,0.4,2.2,0.5,2.4c5.3,0.3,6.6-2.2,9.5-4.4c2.8,2.7,0.1,3.1,4.2,5.2c3.3,1.7,2.6,0.7,4.8,3.3
			c1.1,3.6-7.3,13.3-10.1,15c-2.1,1.4-3.3,0.6-5.2,2.1c-2.8,2.4,0.4,2-4.6,3.9c-5.3,1.9-10.6,6-16.2,6.3c-1.2-3.3-2.4-6.6-3.6-10
			c-3.5-11.4-3.4-7-7-12.9c-1.7-2.5-1-4.2-2.1-6.5c-0.8-1.7-2-2.4-3.1-4.5c-1.6-3.2-3.5-8.3-7.3-7.8c-0.8,2.5,3.5,11.2,4.5,13.3
			c1.1,2.1,2.7,3,3.3,6c0.7,4.1-0.1,3.6,2.1,6.4c4.8,5.7-0.2,4.7,7.2,10.3c5.5,4.2,4.1,5.5,6.5,11.1c3.6,1,14.4-3.8,16.2-2.4
			c2.2,3.9-2.5,10.2-3.8,13.6c-4,11.4-10.9,11.2-16.2,20c-2.9,4.7-4.2,5.3-6.9,11c-3,6.4,6.2,24.2,0.6,31.6c-1.2,1.7-5.1,2.7-10,7.9
			c-5.2,5.6,0.1,4.7-1.9,14c-1.6,2.1-3.5,2.3-5.4,3.8c-0.7,2.2-0.1,4-1.3,6.7c-1.3,3.3-1.5,1.5-3.3,4.2c-1.3,2.1-1.2,2.9-2.7,4.9
			c-1.3,1.8-2.1,2.3-3.3,3.4c-6.2,5.7-19.4,5.8-20.5,5c-3.1-2.7-1-3.3-1.8-7.1c-0.8-3.3-2.5-6.1-4-8.6l-0.1-0.3
			c-0.7-1.2-1.3-2.4-1.7-3.6c-2.5-8.1-1.6-14.2-6.1-22.4c-5.6-10.6,3.1-16.1,2.7-22c-0.1-1.6-0.7-2.5-0.9-3.8
			c-1.1-6.6-1.7-12.5-6.1-17.6c-4.8-5.6-4.2-3.6-2.6-12.9c2-10.6-2.5-7.9-8.9-8.2c-3.1-9.6-9.2-4.9-15.3-2.1
			c-3.8,1.8-5.2-0.5-9.6,0.1c-9.6,1.3-2.1,5.4-14.9-4.8c-5.4-4.3-1.8-2.1-5-7.4c-1.1-1.9-4.3-4.5-5.8-6.4
			c-4.9-6.1,0.9-12.3,0.1-19.3c-1.5-13.1-3.6-1.7,3.7-17.5c3.8-8.4,9.6-8.4,11.1-12.2c1.3-3.3,0.4-5.7,2.8-8.8
			c2.1-2.5,5.2-2,6.4-5.9c1.7-4.8-1.6-5.4-5.1-5.6c-1.5-5-1.5-3.8-0.3-8.4c0.6-2.6,0.1-3.9,0.6-6.5c1.4-6.5,12.5-0.1,15.7-2.7
			c1.5-2.8,1.7-5.5,0-8.2c-1.8-2.7-4.1-2.3-5.3-4.9c2.7-1.8,0.7-0.2,3-0.7c2.8-0.6,2.4-1.4,5.7-2c2.9-0.6,4.8-3.2,7.6-5.1
			c4-2.6,2.1-4.9,7-5.7c7.9-1.4,2.8-1.1,3.6-8.4c1.2-0.5,2.3-1,3.5-1.5c2.5,3.2-0.6,1.9,2.3,4.1c0.8-0.4,1.7-0.9,2.5-1.4
			c-0.4-3.5-2.1-2.8-3.1-7.2c-3.9,0.6-5.3,3.9-8.4,2.7c-3-1.1-3.2-5.5-3-9.1c1.1-2.7,6.8-4.2,9-4.9c3.5-1.2,3-3.6,6.3-6.8
			c4.2-4.3,1.1,0.1,3.2-5.4c4.7-0.2,2.5-0.3,5.2-1.8l0.1-0.1l0.3-0.1c1.6-0.7,3.8-0.9,5.9-1.6c7.8-2.6,11-1.3,16.6,1
			c4.4,1.8,17.6,1.9,18.6,7.4c-3.2,3.3-6.2,0.9-10.8,1.2c0.9,4.3,1.2,4.3,5.1,5.5c0.6-2-0.3-1.2,0.8-2.5c1.3,0.3,2.5,0.5,3.8,0.7
			c1.3-4.4,2.8-3.8,7.1-4.3c-0.7-3-1.5-2.2,0.1-4.5c4.5,0.4,0.9,0.1,3,3.6c3.1-0.4,6.2-3.9,10.5-4.3c2.7-0.3,2.6,0.7,6.4,0.3
			c3.1-0.3,3-1.5,6.1-0.2c1.1-2.1,0-2,2.8-2.6c4.2-0.7,7.9,1.9,12,2.4c-3-3.8-5.9-3-2.2-9.3c4.7-1,5.2-0.3,7.2,3.3
			c1.2-0.7,1.7-1.3,2.2-1.7c-0.3-0.3-0.6-0.5-1-0.8c-1.8-1.4-3.5-2.8-5.4-4.1c-0.3-0.3-0.7-0.5-1.1-0.8c-1.5-1.1-3-2.2-4.6-3.3
			c-0.5-0.3-1-0.7-1.5-1c-1.9-1.3-3.8-2.5-5.7-3.8c-0.2-0.1-0.4-0.2-0.5-0.3c-1.7-1.1-3.5-2.2-5.3-3.2c-0.6-0.3-1.1-0.7-1.7-1
			c-1.7-1-3.4-2-5.1-2.9c-0.3-0.2-0.6-0.3-0.9-0.5c-2-1.1-3.9-2.1-5.9-3.1c-0.6-0.3-1.2-0.6-1.7-0.9c-1.6-0.8-3.2-1.6-4.8-2.3
			c-0.5-0.2-1-0.5-1.5-0.7c-2-0.9-4.1-1.8-6.1-2.7c-0.5-0.2-1.1-0.4-1.6-0.7c-1.6-0.7-3.3-1.3-4.9-1.9c-0.6-0.2-1.3-0.5-1.9-0.7
			c-2.1-0.8-4.2-1.5-6.3-2.2c-0.4-0.1-0.8-0.3-1.2-0.4c-1.8-0.6-3.6-1.2-5.4-1.7c-0.7-0.2-1.4-0.4-2.1-0.6c-1.9-0.6-3.8-1.1-5.8-1.6
			c-0.3-0.1-0.6-0.2-0.9-0.2c-2.2-0.6-4.4-1.1-6.6-1.6c-0.7-0.2-1.4-0.3-2.1-0.5c-1.8-0.4-3.5-0.7-5.3-1.1c-0.6-0.1-1.2-0.2-1.7-0.3
			c-2.2-0.4-4.5-0.8-6.7-1.1c-0.7-0.1-1.3-0.2-2-0.3c-1.8-0.2-3.5-0.5-5.3-0.7c-0.7-0.1-1.4-0.2-2.1-0.2c-2.2-0.2-4.5-0.4-6.8-0.6
			c-0.6,0-1.1-0.1-1.7-0.1c-1.9-0.1-3.7-0.2-5.6-0.3c-0.8,0-1.5-0.1-2.3-0.1c-2.2-0.1-4.4-0.1-6.6-0.1h-0.5
			c-54.4,0-104.1,19.6-142.7,52.2l0.1,0.2c0.3,0.5,0.5,0.5,0.8,1.7c-3.6,0.9-3.6,1.5-4.9,1.6c-0.8,0.7-1.6,1.5-2.4,2.2
			c2.6,0.9,6,0.3,8.5,0.2c0.9-1.7,1.5-3.2,3.1-3.8c0.6-0.2,1.4-0.3,2.5-0.2c0.1,0.8,0.3,1.7,0.6,2.5c0,0.1,0.1,0.4,0.1,0.5
			c0.1-0.1,0.1,0.4,0.2,0.5c4.5-2.6,0.7-2.7,3.1-7.4c-3.8-0.7-3.2-0.3-5.6-2.7c2.3-2.5,6.7-3.3,9.9-3.1c-0.2,2.3-1.3,2.2-0.4,4.1
			c2.5-1.6,4.3-5.8,8.4-5.1c0.8,0.6,1.7,1.1,2.5,1.6c-2.1,2-5.3,2.1-8.1,3.2c-1.2,12.3,3.9,2,2.2,10.4c3-0.2,6-2.4,7.2-4.7
			c-1.1-1.5-2.8-1.5-3.7-3.2c0.7-2.3,2.2-4,4.4-5c1.5-0.7,3.2-1.1,5.2-1.1c22.5,0.2,11.8,1.2,18.8,4.4c1.6,0.7,4.3,1,5.2,2.4
			c1.4,2.2,0.1,4.2,2.3,5.9c2,1.5,2.3-0.1,4.9,3.2c-0.6,1.9-1.9,3.8-4.7,3.9c-3.8,0.1-1.6-2.6-5.7-2.2c0.1,3.9,3.9,5.3,0.3,7.4
			c-3.1,1.9-1.1-0.7-3.5,0.6c-0.1,0.1-0.3,0.2-0.4,0.2c-0.1,0.1-0.3,0.3-0.4,0.4c-0.4,0.4-0.8,0.9-1.1,1.2c-5.7-1.5-4.6-0.8-8-4.6
			c-1.3-1.4-1.5-1.8-3.8-1.6c-1.4,0-3.2,0.7-4.6-0.6c2.8-3.5,4.1-0.1,8.2-2.2c0.7-0.3,5.2-3.8,5.9-4.6c-1.2-2.7-0.1-0.5-1.9-2.2
			c-4-4-5.1-3-10.5-3c-2.5,2.9-4.4,6.5-7.2,8.1c-1.7,1-3.6,1.2-6.2,0.1c1.2,4.9,4.3,1.1,4.6,7c-2-0.4-3.1-1.4-5.2-0.7
			c-4.5,1.7-0.5,1.5-0.1,2.4c0,0.1,2.1,0.3,0,1.1c-2.3,0.9-0.4-0.4-4.9-3.1c0.6-1.1,1.3-2.3,1.9-3.5c-3.7,1.1-8.3,3-12.6,5.1
			c-4.9,2.4-9.5,5.2-12.3,7.8c-0.1,4.3,0.7,1.4,1.1,6.5c6.6,0.4,4.5,2.4,11,4.2c1.3,0.3,2.9,0.7,4.9,1c0,3.2-2.8,5.6-0.9,8.9
			c4.6,3.2,4.8-3.1,5.9-7.1c15.6-3.3,8.1-7.8,12.1-16.4c0.6-1.3,1.5-2.6,2.7-4.1c1.2,0,6.1,0.6,7.2,0.8c3.5,0.6,1.6,1.5,5.4,3.2
			c-0.1,3.1-1.6,7,2.9,6.3c3.5-0.6,2.7-3.3,6.9-4c1.9,4.5,1.4,6.4,2.3,11.8c10.2,4,5.7,7.2,3.7,14.6c1.3,0.6,2.6,1.2,4,1.8
			c-0.1,2.2-0.1,4.2-0.2,6.4c-0.2,0-10.9-2.3-11.6-2.6c1.6-4.7,4.6-4.7,6.5-9.5c-3.8,0.7-3.5,1.9-6.3,2.7c-2.5,0.7-4.4,0.2-7,0.6
			c0.1,0.2,0.1,0.6,0.2,1.2c0.1,1.5,0.9,0.1-0.1,1.7c-3.5-1.7-2.3-5.5-8.9-1.9c1.5,0.7,3,1.3,4.5,1.9c-0.2,4.4-0.6,1.1-1.5,4
			c-2.3,7.4,6.2,2.8,8.4,2.4c-0.6,3.9-3,3.9-6.4,5c-3.8,1.1-4.9,2.7-7.9,3.4c0-4.7-0.7-0.7,1.3-4c-3,0.3-5.2,1.7-8,2.8l-0.3,0.1
			c-3.6,1.5-4.2,1.7-4.6,6.3c-3.1,1-6.7,2.1-8.9,4.3c-2.2,2.1-4.4,4.2-6.5,6.2c-0.2,0.2-0.4,0.3-0.5,0.4c0.8,5.9,0,6-3.5,8.2
			c-3,1.9-4,1.9-6.7,4.3c-8.9,7.9-4.6,4.2-4.1,17.9c-1.8-0.6-3.6-1.2-5.3-1.8c-1.3-9.1,0.5-6.1-6.8-8.2c-7.9-2.3-6.8,1.6-10.1,2.3
			c-3.6,0.8-5.4-3.3-10.6,0.1c-2.9,2-5.7,3.3-6.4,6.8c-0.9,4.3-2.8,7.4-2.5,12.1c0.5,12.8,12.1,13.5,15.1,7.5c2-4,1.5-6.1,7.9-5.1
			c0.6,3.4-0.3,5.9-1.2,8.5c-0.6,1.5-2.1,4.3-1.3,6.4c4.6,1.9,4.8-1.7,10.8,2c0.4,6.1-2.7,12.9,1.9,16.4c3.6,2.7,3.8,0.3,7-0.3
			c3.5-0.6,2.9,1.6,6.2,2.1c1.9-2.3,1.1-0.9,2.3-3.6c2.1-4.8,2.7-2.5,7.7-5.5c0.5-0.3,0.9-0.6,1.4-0.9c0.6,1.2,1.2,2.3,1.8,3.5
			c3.7-4.4,4.1-0.1,8.4,1.1c1.8,0.5,3.1,0.7,4.1,0.7c3.1,0,3.4-1.5,7.6,0c0.5,0.2,1.1,0.4,1.7,0.6c0.1,0,0.3,0.1,0.3,0.2
			c0.1,0.1,0.3,0.2,0.3,0.3c0.7,0.8,0.8,1.6,1.3,2.4c2.9,2.8,5.8,5.6,8.6,8.3c5.6,2.2,5.6-1.9,12,4.2c2.7,2.5,1.5,2.5,3,5.8
			c0.2,0.5,0.6,1,0.9,1.6c0.6,1.5,1.2,3,1.8,4.5c2.9,3.8,6.9,1.4,10.9,5.3c2.3,2.3,0.6,1.6,5.7,2.5c8,1.3,4.9,0.6,11,5.2
			c2.3,1.7,2.9,0.7,5.1,2.2c3,4.3,2.3,8.9-0.3,12.6c-7.9,11.5-5.2,9.6-5.5,18.7c-0.3,5.2-1.8,16-6.7,17.3c-17.8,5-7.4,8.5-12.1,17.2
			c-1.3,2.5-2.3,3.1-3.2,5.1c-3.5,8.3-1.1,11.1-11.5,9.2c1,1.8,0.4,0.6,1.3,2.1c3.1,4.8,3.6,8.5-2.8,9.6c-5.3,1-3,0-3.5,5.9
			c-2.1,0.9-3,0-4.3,1.4c1.8,3.4,0.1,0.6,3.3,2.5c-0.6,1.9-1,3.7-1.5,5.5c-1.2,4.4-1.6,0.3-2,5.5c1.8,0.9,3.1,0.7,4.8,2.9
			c-0.2,1.7-1.9,6.4-2.4,9c2.6,3.9,4.8,8.1,10.4,8.5c-0.1,3.3,0.7,2.9-2.1,3.6c-2.4,0.6-7.5-1.7-9.6-2.8c-3.7-2-7.1-4.6-9.6-8.3
			c-1.4-2.1-0.8-1.1-2.3-3.1c-2.7-3.5-1.6-5.1-2.4-7.4c-0.4-1.4-2.6-2.8-1.7-7.3c0.2-1.2,2.2-7.2-0.2-6.2c-2.4,1,1.8,0.6-1.5,2.1
			c-0.8-2.1-1.4-5.3-1.8-8c-0.9-4.5-1.9-4.7-2.4-7.4c-1.1-6.3,1.6-7-1.3-17.5c-2-6.9-1.2-23.4-3.2-31.8c-0.3-1.3-0.7-2.5-1.2-3.4
			c-1.9-3.2-6.6-4.7-10.3-7.2c-0.2-0.1-0.3-0.1-0.4-0.2c-5.2-3.6-10.1-17.9-14.2-23.2c-1.9-2.6-3.1-1.4-4-5.4
			c-0.9-3.7,0.5-3.1,1.7-6.1c-6.3-11.6,8.2-11.4,5.2-25.3c-0.6-2.6-2.5-6.1-4-7.3c-3,1.3-1.6,2-3.1,4.5c-2.4-1.4-4.8-2.7-7.2-4.1
			c-7.3-7-3.4-1.9-5.4-6.5c-4.4-9.6-8.6-4.2-13.8-9c-2.3-2-2.8-5.1-6.7-4.5c-5.9,0.8-2.6,1.7-8.7-1.1c-5.2-2.4-10.6-5.3-14.2-8.6
			c-0.2-6.9,1.9-6.2-3.3-12.6c-3.4,15.4-5.2,31.3-5.2,47.7c0,2.5,0.1,5.1,0.1,7.6c0,0.5,0,1.1,0.1,1.6c0.1,2.4,0.2,4.8,0.4,7.2
			c0,0.1,0,0.2,0,0.3c0.2,2.5,0.4,5,0.7,7.5c0,0.5,0.1,1,0.2,1.5c0.3,2.2,0.6,4.4,0.9,6.6c0,0.3,0.1,0.5,0.1,0.8
			c0.4,2.4,0.8,4.9,1.2,7.3l0.3,1.3c0.4,2.1,0.8,4.2,1.3,6.3c0.1,0.3,0.1,0.7,0.2,1c0.5,2.4,1.1,4.8,1.7,7.1
			c0.1,0.3,0.2,0.7,0.3,1.1c0.6,2.1,1.1,4.2,1.8,6.2c0.1,0.4,0.2,0.8,0.3,1.2c0.7,2.3,1.5,4.7,2.3,7c0.1,0.2,0.2,0.4,0.2,0.7
			c0.7,2.1,1.5,4.2,2.3,6.3c0.1,0.4,0.3,0.8,0.4,1.2c0.9,2.3,1.8,4.6,2.8,6.8c0,0,0,0.1,0,0.1c0.9,2.2,1.9,4.4,2.9,6.5
			c0.2,0.4,0.3,0.7,0.5,1.1c2.1,4.4,4.3,8.7,6.7,13c0.2,0.3,0.4,0.6,0.5,1c2.4,4.3,4.9,8.4,7.6,12.5c0.2,0.3,0.3,0.5,0.5,0.8
			c2.7,4.1,5.5,8.1,8.5,12.1c0.1,0.2,0.3,0.4,0.4,0.6c1.5,1.9,2.9,3.8,4.5,5.7c0,0,0.1,0.1,0.1,0.1c1.6,2,3.2,3.9,4.9,5.8
			c0.1,0.1,0.2,0.2,0.3,0.3c1.6,1.8,3.2,3.6,4.9,5.4c0.1,0.1,0.2,0.2,0.2,0.3c3.5,3.7,7.1,7.2,10.8,10.6c0.1,0.1,0.2,0.2,0.3,0.3
			c3.7,3.4,7.5,6.7,11.4,9.9c0.1,0.1,0.2,0.2,0.4,0.3c3.9,3.1,8,6.2,12.1,9c0.1,0.1,0.3,0.2,0.4,0.3c4.2,2.9,8.4,5.6,12.8,8.2
			c0.1,0.1,0.2,0.1,0.4,0.2c4.4,2.6,8.9,5,13.4,7.3c0.1,0,0.2,0.1,0.3,0.1c29.7,14.9,63.3,23.2,98.8,23.2
			c122.2,0,221.3-99.1,221.3-221.3C2850.8,307.3,2849.7,294.5,2847.5,282z M2631.7,179.3c0.6,1.3,1.1,2.5,1.8,3.8
			c0.9,3.5-1.9,0.6,0.9,4.8c2.2,2.6,4.3,5.2,6.4,7.8c-1.3,3.9-1.3,4.3-5.1,4.6c-2.7,0.2-5.7,1-7.8,0.9c0.8-5-0.7-2.4,0.5-5.3
			c1.3-3.5,1.6-0.9,2.7-4.2c-2.6-3.9-5.4-1.2-5.2-9.2C2628.4,180.2,2628,180.6,2631.7,179.3z M2748.1,383.9
			c-1.1,3.1-2.1,6.9-3.2,10.3c-1.4,4.7-4.8,19.7-10.9,13.8c-2.1-1.9-2-8.5-0.7-11.1c3.8-7,0.4-5.4,1.6-10.8c1-4.3,4.4-3.2,6.9-5.6
			c2.3-2,2.8-5.7,5.9-7.3C2750.9,377.6,2749.3,380.5,2748.1,383.9z M2847.2,280.3c0.1,0.6,0.2,1.2,0.3,1.7c0,0,0,0,0,0
			C2847.4,281.5,2847.3,280.9,2847.2,280.3z"/>
	</g>
	<path class="st4" d="M3061.2,477.3c0.7-3.7-2.9-7.1-2.9-7.1c-1-1-4.8-2.9-8.3-3.5c-6.8-1.2-13,0.4-19.3,4.9
		c-3.9,2.7-11.9,10.8-15.6,15.8c-2.8,3.7-10,15.2-16.1,25.7c-6.2,10.7-10.3,16-19.2,24.8c-4.3,4.3-10.1,9.8-12.9,12.2
		c-8.1,7.1-17.2,17.9-19.9,23.5c-1.2,2.4-2,3.5-2.8,3.7c-0.4,0.1-0.9,0.1-1.3-0.1c-1.2-0.6-1.1-1.2,0-4.1c1.7-4.6,10.6-16,17-21.9
		c0.6-0.5,1-1,1.2-1.2c-3.3,0.5-23.4,6.6-30.9,9.7c-15.3,6.3-28.4,14.3-36.9,22.6c-7.6,7.4-16.7,20.5-20.7,29.9
		c-1.4,3.2-1.9,4-2.9,3.9c-0.6-0.1-1.4-0.6-1.7-1.2c-0.6-0.9-0.3-2,1.2-5.5c3.8-9,11.9-20.7,20.4-29.2
		c13.1-13.2,35.8-24.6,63.9-32.2c4.1-1.1,8.8-2.2,10.4-2.4l2.8-0.4l8.3-8.3c9.1-9.1,13.9-14.7,16.9-20c1.1-1.9,1.8-3.3,2-3.7
		c-0.9-0.7-8.6-2.6-12.1-2.7c-3.4-0.1-7.2,0.1-11.4,0.5c-1.4,0.1-4.7,0.4-7.5,0.5c-5.7,0.3-13,1.5-17.2,2.8c-4.3,1.3-7.2,3.3-11.8,8
		c-3.7,3.9-9.3,11.5-10.1,13.8c-0.5,1.3-2.5,3.2-6,5.7c-5.8,4-17.5,13.2-31.2,24.8c-11.4,9.6-22.7,21.9-29.5,32
		c-3.5,5.3-6.1,10.6-8.5,17.7c-2.3,6.8-3.5,8.7-13,20.5c-3.7,4.6-9.8,12.5-13.5,17.5c-12.7,17.1-15.7,20.6-16.6,20.8
		c-0.6,0.1-1.3,0-1.8-0.4l0,0c-1.3-1.1-0.6-2.3,3.2-7.1c1.9-2.4,7.2-9.2,11.7-15.2c4.6-6,9.3-12,10.5-13.4c1.2-1.4,4.6-5.6,7.6-9.5
		c5.3-6.8,5.4-7,7.2-12.2c2.1-6.1,5.4-13.8,7.5-17.2c3.7-6.2,13.5-18.2,20.1-24.7c10-9.8,34-29.6,44.4-36.6c2.1-1.4,3.8-2.8,4-3.2
		c6.8-11.1,10.9-16.2,15.5-19.7c2-1.5,2.2-2,2.3-3.1c0.1-2.8,2.9-12,4.8-15.9c1.5-3.1,1.8-4.2,2.1-7.7c0.5-5.9,2-11.4,4.7-17.1
		c5-10.7,5.5-12.2,6.1-18.4c1.1-12,4.7-23.8,8.6-28.1c2.4-2.6,6.3-4.4,9.4-4.3l1.7,0.1l-0.3-2.4c-0.7-4.6-0.7-11.7,0-16.5
		c0.7-5,2.4-9.5,5-12.9c1.7-2.2,6.8-5.4,9.8-6.1c1.6-0.4,1.6-0.3,2.7-4c1.8-6.1,7.1-12.8,12-15.2c6.1-3,12.1-2.5,15.9,1.3
		c2.6,2.7,4,6.1,3.9,9.8c-0.1,4.5,0.4,13.8,0.9,17.3l0.3,2.1l0.6-1.7c2.2-6.3,5.8-10.4,12.1-13.8c5.1-2.7,7.8-3.1,12.1-1.6
		c5.7,1.9,6.9,4.6,9.3,20.3c0.8,5.6,2.1,13.1,2.9,16.8c2.1,10.4,4,23.1,4.9,34c0.5,5.4,1.1,12,1.3,14.7c0.7,7.4,0.5,20.3-0.5,29.5
		c-1,10.3-3,24.3-4.2,29.9c-0.6,2.8-4.1,13.7-7.9,24.9c-3.9,11.5-8,23.2-9.6,26.7c-9,20.6-27.9,45-45,58.1
		c-14.8,11.3-20.3,15.2-31,21.6c-2.9,1.8-7,4.3-8.8,5.5c-1.9,1.2-5.4,3.5-7.9,5c-11.8,7.3-24.6,19.1-31,28.8
		c-4.8,7.1-7.7,11.8-10.5,16.7c-1.7,3-4.9,8.6-7.2,12.4c-2.2,3.8-4.3,7.3-4.6,7.8c-0.5,0.9-1.6,1.2-2.4,1.1c-0.6-0.1-1.1-0.5-1.2-1
		c-0.2-1.1,0.9-4.5,11.2-21.6c12.6-21,17.7-27.8,27.6-36.2c4.2-3.6,23.4-17,27.9-19.4c1.4-0.8,3.7-2.1,5.2-3.1
		c1.5-1,4.8-3.1,7.3-4.6c10.6-6.7,24.3-17.3,34.2-26.5c3.5-3.3,12.5-13.9,18.2-21.4c3.6-4.7,9.9-16,13.3-23.6
		c1.9-4.3,5.2-13.3,9.9-27.5c7.7-23.1,8.3-25.6,10.8-44.1c2.4-17.9,2.9-29.4,1.8-42.4c-1.5-17.7-1.9-21.5-2.8-26.9
		c-1.1-6.6-3.8-20.4-4.4-22.8c-0.2-0.8-1.1-6-2-11.8c-1.9-11.9-3.1-15.5-5.8-16.8c-4-1.9-11.4,1-15.7,6.2c-1.7,2-2.3,3.3-3.8,7.8
		c-2.7,8-2.8,13.2-0.8,26.7l1.6,10.4l1.5-0.5c4.7,0.7,7.6-0.3,12.3,0.4c5.4-0.3,6.1,0.4,6.4,0.9c0.1,0.2,0.2,0.5,0.1,0.7
		c-0.3,0.9-1.8,1.2-5.7,0.8c-4.6-0.4-14.1,0.9-14.7,1.6c-0.6,0.8-3,11.4-3.6,17c-0.8,7.3-0.7,15.8-0.1,16.9c0.3-0.1,1.1-0.6,2.1-1.3
		c4.8-3.5,10.1-5.9,14.3-6.4c6.5-0.9,12.3,0.4,16.3,3.6c3,2.4,4.8,5.8,5.2,9.8c0.2,2.5,0,3.8-1.7,8.9c0,0.1,0,0.1-0.1,0.2
		c-1.1,3.3-3.7,10.1-5.9,15.2c-3.4,8.1-4.2,10.5-5.6,16.7c-1,4.2-3.3,11.9-5.5,18.3l-3.8,11.1l-8.6,12.4
		c-12.3,17.6-16.3,24.9-22.4,41.1c-3.5,9.1-9.9,23.9-10.9,24.5c-0.6,0.4-1.4,0.4-2.1,0.1c-0.6-0.3-1-0.8-1-1.4
		c0-0.6,0.8-2.4,1.6-3.9c0.9-1.5,4.1-9.1,7.1-16.8c8.7-21.9,12.2-28.5,25.3-47.4c9.3-13.5,10.5-16,14.1-30.2
		c1.6-6.1,3.4-13.2,4.4-15.6 M3030.4,486c0.1-0.2,0.1-0.3,0.2-0.5 M3035.6,474.9 M2970.9,427c-2.1,0.2-4.3,1.7-6.2,4.1
		c-0.9,1.1-1.9,3.5-3,6.9c-2.2,6.6-2.8,10-3.3,16.9c-0.5,6.8-1.5,10.1-6.2,19.9l-3.4,7.2l-1,7.4c-0.9,6.7-1.2,7.9-2.7,10.6
		c-1.8,3.3-5,12.3-4.9,13.6c0,0,0,0.1,0,0.1c0.3,0.2,2.7-0.4,3.7-0.7c4-1.1,16.2-3,18.6-2.8c0.9,0.1,1,0.1,1.3-1.6
		c0.5-3,1.4-6.5,2.7-10.1c2-6,4.8-12.2,7.4-16l1.9-2.8l-0.4-5.1c-0.6-8.4-0.4-20.8,0.4-26.9c0.6-4.6,0.6-7.1-0.1-12.9
		C2974.6,426.6,2974.5,426.6,2970.9,427z M2968.1,509.5c0.2,0.2,1.5,0.1,3.6-0.2c2.3-0.2,5.4-0.4,7-0.4c1.8,0,2.3-0.2,2.5-0.3
		c0,0,0-0.1,0-0.1c-0.1-1.6,1.6-10.5,3.2-17c1.5-6.3,4.3-14,6.4-17.4c0.7-1.2,0.8-2,0.5-3.7c-2.2-11.7-2.3-35.1-0.3-43.1
		c1-4,1-4.8,0.1-11.7c-1-7.4-1.9-21.7-1.6-24.5c0.1-0.8-0.1-1.3-0.2-1.4c-0.7-0.2-5.6,2.5-7.3,4.3c-0.7,0.8-2,3.2-2.7,5.1
		c-2.7,7-3,15.6-0.9,28.7l0.2,1.1c1,6,1.4,8.4,2,8.8c0.2,0.1,0.5,0,1-0.1l0.2-0.1c2,0.4,2.7-0.5,4.3,0.1c0.6,0.2,0.9,0.6,0.9,1
		c0,0.5-0.4,1.3-3.7,2.7l-3.1,1.3l-0.6,6.7c-0.3,3.8-0.4,11.7-0.1,17.7l0.4,10.7l1.8,0.3c7,0.4,3.1,1.4,3,2.2c0,0.1,0,0.1-0.1,0.2
		c-0.3,0.8-1.7,1.3-3.6,1.3c-2.1-0.1-2.7,0.4-6.6,7.9c-1.2,2.2-2.7,6.1-3.9,9.9c-1.4,4-2.4,7.9-2.5,9.4
		C2968.1,509.2,2968,509.5,2968.1,509.5z M2985.3,509.3l1.5,0.3c1,0.2,3.4,0.8,5.2,1.4c3.1,1,3.1,0.9,3.5,0.2
		c8.6-15.6,13-22.1,20.7-30.3l4.8-5.2l-0.3-3.3c-0.9-8.7,0.3-20.4,2.9-30.6l1.4-5.5l-1.6-10.6c-0.9-5.9-1.6-12.2-1.5-14
		c0.1-1.8-0.2-4-0.5-5c-1.1-3.5-2.3-17.6-2.4-28.5c0-1.6-0.5-4-1.1-5.4c-1-2.4-1.2-2.5-4.1-3.7c-2.6-1.1-3.4-1.2-5.2-0.8
		c-4.6,1-6.4,2.3-10.7,7.9c-4,5.2-4.9,10.6-4.2,24.4c0.3,5.3,1.8,18.4,2.2,20.1c0.3,0,0.9-0.2,1.8-0.5c3.8-0.2,7.2-1.1,11-0.9
		c2.8,0.1,4.1-0.4,4.7,0.7c0.3,0.6,0.3,1.1,0.1,1.4c-0.5,0.8-2,1-5.2,0.9c-3.6-0.1-9.5,0.9-11.8,2c-1,0.5-1.1,0.6-1.8,4.4
		c-1.5,8.4-1.5,24.8,0.1,36.7l1,7.7l-2.6,6.2c-3.4,7.9-5.1,14.4-7.3,26.5L2985.3,509.3z"/>
	<path class="st4" d="M2205.8,513c1,2.4,2.8,9.5,4.4,15.6c3.6,14.2,4.8,16.7,14.1,30.2c13.1,18.9,16.6,25.5,25.3,47.4
		c3.1,7.7,6.3,15.2,7.1,16.8c0.8,1.4,1.6,3.2,1.6,3.9c0,0.6-0.4,1.1-1,1.4c-0.7,0.4-1.5,0.3-2.1-0.1c-1-0.7-7.5-15.4-10.9-24.5
		c-6.2-16.2-10.1-23.5-22.4-41.1l-8.6-12.4l-3.8-11.1c-2.2-6.4-4.5-14.1-5.5-18.3c-1.4-6.2-2.2-8.5-5.6-16.7
		c-2.1-5.1-4.7-11.8-5.9-15.2c0-0.1-0.1-0.2-0.1-0.2c-1.7-5.1-1.9-6.4-1.7-8.9c0.4-4,2.2-7.4,5.2-9.8c4-3.2,9.8-4.5,16.3-3.6
		c4.2,0.6,9.6,3,14.3,6.4c1,0.7,1.8,1.2,2.1,1.3c0.5-1.1,0.7-9.7-0.1-16.9c-0.6-5.6-3-16.2-3.6-17c-0.6-0.7-10.1-1.9-14.7-1.6
		c-4,0.3-5.4,0.1-5.7-0.8c-0.1-0.2-0.1-0.5,0.1-0.7c0.3-0.5,1-1.1,6.4-0.9c4.7-0.7,7.6,0.3,12.3-0.4l1.5,0.5l1.6-10.4
		c2-13.5,1.9-18.8-0.8-26.7c-1.5-4.4-2.1-5.8-3.8-7.8c-4.4-5.2-11.8-8.1-15.7-6.2c-2.7,1.3-4,4.9-5.8,16.8c-0.9,5.8-1.8,11-2,11.8
		c-0.7,2.4-3.4,16.3-4.4,22.8c-0.9,5.5-1.3,9.2-2.8,26.9c-1.1,13-0.6,24.4,1.8,42.4c2.5,18.6,3.1,21,10.8,44.1
		c4.7,14.2,8,23.2,9.9,27.5c3.4,7.6,9.8,18.9,13.3,23.6c5.6,7.5,14.7,18.1,18.2,21.4c9.9,9.2,23.6,19.8,34.2,26.5
		c2.5,1.6,5.8,3.7,7.3,4.6c1.6,1,3.9,2.4,5.2,3.1c4.4,2.4,23.7,15.9,27.9,19.4c9.9,8.4,15,15.2,27.6,36.2
		c10.3,17.2,11.4,20.5,11.2,21.6c-0.1,0.5-0.6,0.9-1.2,1c-0.8,0.1-1.9-0.2-2.4-1.1c-0.3-0.6-2.4-4.1-4.6-7.8
		c-2.3-3.8-5.5-9.3-7.2-12.4c-2.8-4.9-5.7-9.6-10.5-16.7c-6.5-9.6-19.2-21.5-31-28.8c-2.5-1.5-6-3.7-7.9-5c-1.8-1.2-5.9-3.7-8.8-5.5
		c-10.7-6.5-16.2-10.3-31-21.6c-17-13-36-37.4-45-58.1c-1.5-3.5-5.7-15.3-9.6-26.7c-3.8-11.2-7.3-22.1-7.9-24.9
		c-1.2-5.6-3.2-19.5-4.2-29.9c-0.9-9.2-1.1-22.1-0.5-29.5c0.2-2.6,0.8-9.3,1.3-14.7c1-10.9,2.8-23.6,4.9-34
		c0.8-3.7,2.1-11.3,2.9-16.8c2.4-15.7,3.6-18.4,9.3-20.3c4.3-1.4,7-1.1,12.1,1.6c6.2,3.3,9.8,7.5,12.1,13.8l0.6,1.7l0.3-2.1
		c0.5-3.5,1-12.7,0.9-17.3c-0.1-3.8,1.3-7.2,3.9-9.8c3.8-3.9,9.8-4.4,15.9-1.3c4.9,2.4,10.2,9.1,12,15.2c1.1,3.7,1.1,3.7,2.7,4
		c2.9,0.7,8,3.8,9.8,6.1c2.6,3.4,4.3,7.8,5,12.9c0.7,4.8,0.7,11.8,0,16.5l-0.3,2.4l1.7-0.1c3.1-0.1,7.1,1.7,9.4,4.3
		c3.9,4.3,7.5,16.1,8.6,28.1c0.6,6.2,1.1,7.7,6.1,18.4c2.7,5.7,4.2,11.2,4.7,17.1c0.3,3.5,0.6,4.7,2.1,7.7
		c1.9,3.9,4.7,13.1,4.8,15.9c0,1.1,0.3,1.6,2.3,3.1c4.6,3.5,8.6,8.7,15.5,19.7c0.2,0.4,2,1.8,4,3.2c10.4,6.9,34.5,26.7,44.4,36.6
		c6.6,6.5,16.3,18.5,20.1,24.7c2.1,3.4,5.4,11.1,7.5,17.2c1.8,5.2,1.9,5.5,7.2,12.2c3,3.8,6.4,8.1,7.6,9.5
		c1.2,1.4,5.9,7.4,10.5,13.4c4.6,5.9,9.8,12.8,11.7,15.2c3.8,4.8,4.5,6,3.2,7.1l0,0c-0.5,0.4-1.2,0.6-1.8,0.4
		c-0.9-0.2-3.9-3.7-16.6-20.8c-3.7-5-9.8-12.9-13.5-17.5c-9.5-11.7-10.7-13.6-13-20.5c-2.4-7.1-4.9-12.4-8.5-17.7
		c-6.8-10.1-18.1-22.3-29.5-32c-13.7-11.6-25.4-20.8-31.2-24.8c-3.6-2.4-5.6-4.3-6-5.7c-0.8-2.3-6.3-9.9-10.1-13.8
		c-4.6-4.8-7.5-6.7-11.8-8c-4.2-1.3-11.5-2.5-17.2-2.8c-2.8-0.2-6.1-0.4-7.5-0.5c-4.2-0.4-8-0.6-11.4-0.5c-3.5,0.1-11.1,2-12.1,2.7
		c0.2,0.4,1,1.9,2,3.7c3,5.3,7.8,10.9,16.9,20l8.3,8.3l2.8,0.4c1.6,0.2,6.3,1.3,10.4,2.4c28.1,7.6,50.8,19,63.9,32.2
		c8.4,8.5,16.6,20.2,20.4,29.2c1.5,3.6,1.8,4.6,1.2,5.5c-0.4,0.6-1.1,1.1-1.7,1.2c-1,0.1-1.6-0.7-2.9-3.9
		c-4-9.4-13.1-22.5-20.7-29.9c-8.5-8.3-21.6-16.3-36.9-22.6c-7.5-3.1-27.6-9.3-30.9-9.7c0.2,0.3,0.6,0.7,1.2,1.2
		c6.4,5.9,15.3,17.4,17,21.9c1,2.8,1.2,3.4,0,4.1c-0.5,0.2-0.9,0.3-1.3,0.1c-0.8-0.3-1.6-1.3-2.8-3.7c-2.7-5.6-11.8-16.4-19.9-23.5
		c-2.8-2.5-8.6-8-12.9-12.2c-8.9-8.8-13-14.1-19.2-24.8c-6-10.4-13.2-22-16.1-25.7c-3.8-4.9-11.8-13-15.6-15.8
		c-6.3-4.5-12.5-6.1-19.3-4.9c-3.5,0.6-7.3,2.5-8.3,3.5c0,0-3.6,3.4-2.9,7.1 M2224.3,489.4c0.1,0.2,0.1,0.3,0.2,0.5 M2219.3,478.9
		 M2279.3,438.6c-0.7,5.8-0.7,8.3-0.1,12.9c0.8,6.2,1,18.5,0.4,26.9l-0.4,5.1l1.9,2.8c2.5,3.7,5.3,9.9,7.4,16
		c1.2,3.6,2.2,7.2,2.7,10.1c0.3,1.7,0.4,1.7,1.3,1.6c2.4-0.2,14.6,1.7,18.6,2.8c1,0.3,3.3,0.9,3.7,0.7c0,0,0-0.1,0-0.1
		c0.1-1.3-3.1-10.3-4.9-13.6c-1.5-2.7-1.8-3.9-2.7-10.6l-1-7.4l-3.4-7.2c-4.6-9.7-5.7-13.1-6.2-19.9c-0.5-7-1.1-10.3-3.3-16.9
		c-1.1-3.4-2.2-5.8-3-6.9c-1.8-2.4-4.1-3.8-6.2-4.1C2280.4,430.6,2280.3,430.6,2279.3,438.6z M2286.9,512.9
		c-0.1-1.5-1.2-5.4-2.5-9.4c-1.3-3.7-2.8-7.6-3.9-9.9c-3.9-7.5-4.5-8-6.6-7.9c-1.9,0.1-3.3-0.4-3.6-1.3c0-0.1,0-0.1-0.1-0.2
		c-0.1-0.7-3.9-1.7,3-2.2l1.8-0.3l0.4-10.7c0.2-6,0.2-14-0.1-17.7l-0.6-6.7l-3.1-1.3c-3.3-1.4-3.7-2.2-3.7-2.7c0-0.4,0.3-0.7,0.9-1
		c1.6-0.7,2.3,0.3,4.3-0.1l0.2,0.1c0.5,0.2,0.8,0.3,1,0.1c0.6-0.4,1-2.8,2-8.8l0.2-1.1c2.1-13.1,1.9-21.7-0.9-28.7
		c-0.8-1.9-2-4.3-2.7-5.1c-1.6-1.9-6.6-4.6-7.3-4.3c-0.1,0.1-0.3,0.6-0.2,1.4c0.4,2.9-0.6,17.1-1.6,24.5c-0.9,6.9-0.9,7.6,0.1,11.7
		c2.1,8,1.9,31.4-0.3,43.1c-0.3,1.7-0.2,2.5,0.5,3.7c2.1,3.4,4.9,11,6.4,17.4c1.6,6.6,3.2,15.5,3.2,17c0,0,0,0.1,0,0.1
		c0.2,0.2,0.7,0.3,2.5,0.3c1.6,0,4.7,0.2,7,0.4c2.1,0.2,3.4,0.4,3.6,0.2C2286.9,513.5,2286.9,513.2,2286.9,512.9z M2269,509.8
		c-2.2-12.1-4-18.6-7.3-26.5l-2.6-6.2l1-7.7c1.5-11.8,1.6-28.3,0.1-36.7c-0.7-3.8-0.8-3.9-1.8-4.4c-2.3-1.1-8.2-2.1-11.8-2
		c-3.2,0.1-4.7-0.2-5.2-0.9c-0.2-0.4-0.2-0.9,0.1-1.4c0.6-1.1,1.9-0.6,4.7-0.7c3.9-0.2,7.3,0.8,11,0.9c0.9,0.3,1.5,0.5,1.8,0.5
		c0.5-1.7,2-14.8,2.2-20.1c0.7-13.8-0.3-19.2-4.2-24.4c-4.3-5.6-6.1-6.9-10.7-7.9c-1.8-0.4-2.6-0.3-5.2,0.8
		c-2.9,1.2-3.1,1.4-4.1,3.7c-0.6,1.4-1.1,3.8-1.1,5.4c-0.1,10.9-1.3,25-2.4,28.5c-0.3,1-0.5,3.2-0.5,5c0.1,1.8-0.6,8.1-1.5,14
		l-1.6,10.6l1.4,5.5c2.7,10.2,3.8,21.9,2.9,30.6l-0.3,3.3l4.8,5.2c7.7,8.2,12.2,14.7,20.7,30.3c0.4,0.7,0.5,0.8,3.5-0.2
		c1.9-0.6,4.2-1.3,5.2-1.4l1.5-0.3L2269,509.8z"/>
</g>
</svg>
