<svg id="Layer_1" data-name="Layer 1" xmlns="http://www.w3.org/2000/svg" xmlns:xlink="http://www.w3.org/1999/xlink" viewBox="0 0 1920 218.28"><defs><style>.cls-1{fill:url(#linear-gradient);}.cls-2{fill:url(#linear-gradient-2);}</style><linearGradient id="linear-gradient" x1="1177.18" y1="109.14" x2="1920" y2="109.14" gradientUnits="userSpaceOnUse"><stop offset="0.67" stop-color="#f7941d"/><stop offset="0.75" stop-color="#f7941d" stop-opacity="0.75"/><stop offset="0.92" stop-color="#f7941d" stop-opacity="0.22"/><stop offset="1" stop-color="#f7941d" stop-opacity="0"/></linearGradient><linearGradient id="linear-gradient-2" y1="109.14" x2="754.05" y2="109.14" gradientUnits="userSpaceOnUse"><stop offset="0" stop-color="#00aeef" stop-opacity="0"/><stop offset="0.08" stop-color="#00aeef" stop-opacity="0.22"/><stop offset="0.26" stop-color="#00aeef" stop-opacity="0.78"/><stop offset="0.33" stop-color="#00aeef"/></linearGradient></defs><polygon class="cls-1" points="1920 5 1920 0 1287.2 0 1177.17 109.25 1287.2 218.28 1920 218.28 1920 213.28 1289.26 213.28 1237.37 161.86 1240.15 159.08 1190.34 109.27 1294.61 5 1920 5"/><polygon class="cls-2" points="645.78 0 0 0 0 5 643.7 5 694.16 55.76 691.11 58.8 740.92 108.62 690.91 158.63 686.1 163.44 636.26 213.28 0 213.28 0 218.28 645.79 218.28 754.05 108.92 645.78 0"/></svg>