<svg id="Layer_1" data-name="Layer 1" xmlns="http://www.w3.org/2000/svg" xmlns:xlink="http://www.w3.org/1999/xlink" viewBox="0 0 1920 293.59"><defs><style>.cls-1,.cls-2,.cls-3,.cls-7{fill:none;}.cls-1,.cls-2,.cls-7{stroke-miterlimit:10;}.cls-1,.cls-2{stroke-width:5px;}.cls-1{stroke:url(#linear-gradient);}.cls-2{stroke:url(#linear-gradient-2);}.cls-4{fill:#f7941d;}.cls-5{fill:#00aeef;}.cls-6{fill:#fff;}.cls-7{stroke:#fff;stroke-width:0.5px;}</style><linearGradient id="linear-gradient" y1="184.45" x2="1009.53" y2="184.45" gradientUnits="userSpaceOnUse"><stop offset="0" stop-color="#00aeef" stop-opacity="0"/><stop offset="0.81" stop-color="#00aeef"/></linearGradient><linearGradient id="linear-gradient-2" x1="882.82" y1="184.45" x2="1920" y2="184.45" gradientUnits="userSpaceOnUse"><stop offset="0.19" stop-color="#f7941d"/><stop offset="1" stop-color="#f7941d" stop-opacity="0"/></linearGradient></defs><polyline class="cls-1" points="0 291.09 900.22 291.09 1006.01 184.24 900.22 77.81 1.55 77.81"/><polyline class="cls-2" points="1920 291.09 993.88 291.09 886.37 184.56 993.88 77.81 1920 77.81"/><polygon class="cls-3" points="982.49 184.45 966.56 200.38 982.49 184.45 982.49 184.45"/><polygon class="cls-4" points="886.37 184.58 891.18 189.38 940.99 239.2 945.79 234.39 895.98 184.58 1002.76 77.81 993.15 77.81 891.18 179.78 886.37 184.58"/><polygon class="cls-5" points="1006.01 183.92 1001.21 179.12 951.39 129.31 946.59 134.11 996.4 183.92 946.39 233.94 941.58 238.74 889.63 290.69 899.24 290.69 1001.21 188.73 1006.01 183.92"/><polyline class="cls-5" points="901.26 293.59 1009.52 184.23 944.57 240.14 900.1 292.45"/><polygon class="cls-6" points="983.95 183.45 909.69 183.45 946.82 146.35 983.95 183.45"/><path class="cls-6" d="M864.19,17.55V.24H867V17.55Zm17.6,0V9.74l-14.85-.13v-2h14.85V.24h2.87V17.55Z"/><path class="cls-6" d="M911.35,17.43,908,12.82H898.2v-2h8.3l-5.62-7.61L890.45,17.43h-3.26L899.59.76a1.65,1.65,0,0,1,2.78,0l12.39,16.67Z"/><path class="cls-6" d="M920.71,17.43V2.53h-8.33V.24h19.51V2.53h-8.34v14.9Z"/><path class="cls-6" d="M943.66,17.43c-5.85,0-10.15-3.79-10.15-8.78S937.81.24,943.66.24H955V2.53H943.66c-4.21,0-7.32,2.55-7.32,6.24s3.07,6.36,7.32,6.36H955v2.3Z"/><path class="cls-6" d="M958.28,17.55V.24h2.83V17.55Zm17.6,0V9.74H961.11V7.6h14.77V.24h2.87V17.55Z"/><path class="cls-6" d="M982.72,17.43V.24h18.66V2.53H985.56v12.6h15.85v2.3Zm5.59-7.69V7.61h12.28V9.74Z"/><path class="cls-6" d="M1025.41,17.43l-5.61-4.87h-9.33V10.43h9.5c3.1,0,4.68-1.4,4.68-4s-1.73-3.85-4.68-3.85h-12.25v14.9h-2.84V.24H1020c4.71,0,7.49,2.39,7.49,6.14a5.73,5.73,0,0,1-4.47,5.77l6.46,5.28Z"/><line class="cls-7" x1="946.82" y1="163.53" x2="946.82" y2="32.6"/></svg>