<svg id="Layer_1" data-name="Layer 1" xmlns="http://www.w3.org/2000/svg" viewBox="0 0 2184.36 635.12"><defs><style>.cls-1{fill:#fff;}.cls-2{fill:none;}</style></defs><path class="cls-1" d="M557.61,405.85V235.47h27.92V405.85Zm173.27,0V329l-146.17-1.26V308.09H730.88V235.47h28.21V405.85Z"/><path class="cls-1" d="M1021.87,404.69,988.48,359.3H892.4l0-19.55h81.74L918.83,264.8,816.08,404.69h-32l122-164.1c3.46-4.66,7.49-7.45,13.82-7.45,6,0,10.07,2.79,13.53,7.45l122,164.1Z"/><path class="cls-1" d="M1114,404.69V258.05h-82V235.47h192v22.58h-82V404.69Z"/><path class="cls-1" d="M1339.9,404.69c-57.56,0-99.87-37.25-99.87-86.36,0-49.81,42.31-82.86,99.87-82.86h111.39v22.58H1339.9c-41.44,0-72,25.14-72,61.45,0,35.84,30.22,62.61,72,62.61h111.39v22.58Z"/><path class="cls-1" d="M1483.81,405.85V235.47h27.92V405.85Zm173.27,0V329H1511.73v-21h145.35V235.47h28.2V405.85Z"/><path class="cls-1" d="M1724.42,404.69V235.47h183.63v22.58H1752.34V382.11h156v22.58Zm55-75.65v-21h120.88v21Z"/><path class="cls-1" d="M2144.64,404.69l-55.26-47.95h-91.82V335.79h93.54c30.51,0,46.06-13.73,46.06-39.8s-17-37.94-46.06-37.94H1970.51V404.69h-27.92V235.47H2091.1c46.34,0,73.69,23.51,73.69,60.52,0,28.16-15.83,48.41-44,56.79l63.61,51.91Z"/><path class="cls-2" d="M28.75,319.5l149.05,149,149.06-149L177.8,170.44Zm258.3,0h-219L177.57,210,287.06,319.49Z"/><path class="cls-1" d="M177.91,141.79l-.11-.1L0,319.5,163.55,483,11.48,635.12H40.23L185,490.36l-.12-.13L355.61,319.5,192.29,156.17,348.43,0l-.05,0H319.71Zm149,177.71-149.06,149-149-149L177.8,170.44Z"/><polygon class="cls-1" points="68.08 319.49 68.09 319.5 105.46 319.5 105.45 319.49 249.68 319.49 249.68 319.5 287.05 319.5 287.06 319.49 177.57 210 68.08 319.49"/></svg>